# xmcd CD database file
#
# Track frame offsets:
#	150
#	24661
#	62950
#	106057
#	113458
#	146196
#	212259
#	257580
#	284283
#	289137
#
# Disc length: 4358 seconds
#
# Revision: 0
# Processed by: cddbd v1.5.2PL0 Copyright (c) Steve Scherf et al.
# Submitted via: CDex 1.70beta3
#
DISCID=9011040a
DTITLE=Miles Davis - MILES LIVE in Europe 1967
DYEAR=2011
DGENRE=Jazz
TTITLE0=Agitation
TTITLE1=On Green Dolphin Street
TTITLE2=Footprints
TTITLE3=Introduction
TTITLE4=Round Midnight
TTITLE5=No Blues
TTITLE6=Masqalero
TTITLE7=Gingerbread Boy
TTITLE8=The Themo
TTITLE9=The Themo
EXTD=YEAR: 2011
EXTT0=
EXTT1=
EXTT2=
EXTT3=
EXTT4=
EXTT5=
EXTT6=
EXTT7=
EXTT8=
EXTT9=
PLAYORDER=
